# xmcd
#
# Track frame offsets:
#	150
#	12717
#	25407
#	37305
#	49395
#	60597
#	73325
#	86370
#	99600
#	112457
#	122679
#	135197
#	147315
#	161450
#	172957
#	187837
#
# Disc length: 2694 seconds
#
# Revision: 4
# Processed by: cddbd v1.5.2PL0 Copyright (c) Steve Scherf et al.
# Submitted via: EasyCDDAExtractor 11.0.3.2
#
DISCID=e80a8410
DTITLE=Bill Monroe - Sixteen Gems
DYEAR=1996
DGENRE=country
TTITLE0=Kentucky Waltz
TTITLE1=True Life Blues
TTITLE2=Nobody Loves Me
TTITLE3=Good-bye Old Pal
TTITLE4=Blue Grass Special
TTITLE5=Heavy Traffic Ahead
TTITLE6=Summertime Is Past and Gone
TTITLE7=I'm Going Back To Old Kentucky
TTITLE8=It's Mighty Dark To Travel
TTITLE9=Blue Grass Breakdown
TTITLE10=Sweetheart You Done Me Wrong
TTITLE11=Old Cross Road Is Waitin'
TTITLE12=Remember The Cross
TTITLE13=Shine Hallelujah Shine
TTITLE14=Can't You Hear Me Calling
TTITLE15=Travelin' This Lonesome Road
EXTD=YEAR: 1996
EXTT0=
EXTT1=
EXTT2=
EXTT3=
EXTT4=
EXTT5=
EXTT6=
EXTT7=
EXTT8=
EXTT9=
EXTT10=
EXTT11=
EXTT12=
EXTT13=
EXTT14=
EXTT15=
PLAYORDER=
